<svg id="visual" viewBox="0 0 1920 1080" width="1920" height="1080" xmlns="http://www.w3.org/2000/svg" xmlns:xlink="http://www.w3.org/1999/xlink" version="1.1"><rect x="0" y="0" width="1920" height="1080" fill="#F7F7F7"></rect><defs><linearGradient id="grad1_0" x1="43.8%" y1="0%" x2="100%" y2="100%"><stop offset="14.444444444444446%" stop-color="#495579" stop-opacity="1"></stop><stop offset="85.55555555555554%" stop-color="#495579" stop-opacity="1"></stop></linearGradient></defs><defs><linearGradient id="grad1_1" x1="43.8%" y1="0%" x2="100%" y2="100%"><stop offset="14.444444444444446%" stop-color="#495579" stop-opacity="1"></stop><stop offset="85.55555555555554%" stop-color="#8187a1" stop-opacity="1"></stop></linearGradient></defs><defs><linearGradient id="grad1_2" x1="43.8%" y1="0%" x2="100%" y2="100%"><stop offset="14.444444444444446%" stop-color="#bbbecc" stop-opacity="1"></stop><stop offset="85.55555555555554%" stop-color="#8187a1" stop-opacity="1"></stop></linearGradient></defs><defs><linearGradient id="grad1_3" x1="43.8%" y1="0%" x2="100%" y2="100%"><stop offset="14.444444444444446%" stop-color="#bbbecc" stop-opacity="1"></stop><stop offset="85.55555555555554%" stop-color="#f7f7f7" stop-opacity="1"></stop></linearGradient></defs><defs><linearGradient id="grad2_0" x1="0%" y1="0%" x2="56.3%" y2="100%"><stop offset="14.444444444444446%" stop-color="#495579" stop-opacity="1"></stop><stop offset="85.55555555555554%" stop-color="#495579" stop-opacity="1"></stop></linearGradient></defs><defs><linearGradient id="grad2_1" x1="0%" y1="0%" x2="56.3%" y2="100%"><stop offset="14.444444444444446%" stop-color="#8187a1" stop-opacity="1"></stop><stop offset="85.55555555555554%" stop-color="#495579" stop-opacity="1"></stop></linearGradient></defs><defs><linearGradient id="grad2_2" x1="0%" y1="0%" x2="56.3%" y2="100%"><stop offset="14.444444444444446%" stop-color="#8187a1" stop-opacity="1"></stop><stop offset="85.55555555555554%" stop-color="#bbbecc" stop-opacity="1"></stop></linearGradient></defs><defs><linearGradient id="grad2_3" x1="0%" y1="0%" x2="56.3%" y2="100%"><stop offset="14.444444444444446%" stop-color="#f7f7f7" stop-opacity="1"></stop><stop offset="85.55555555555554%" stop-color="#bbbecc" stop-opacity="1"></stop></linearGradient></defs><g transform="translate(1920, 0)"><path d="M0 918C-87.7 876.4 -175.5 834.7 -262.4 807.4C-349.2 780.2 -435.3 767.2 -530.8 730.5C-626.3 693.9 -731.2 633.5 -742.7 539.6C-754.1 445.7 -672.1 318.3 -685.7 222.8C-699.3 127.3 -808.7 63.6 -918 0L0 0Z" fill="#d9dae1"></path><path d="M0 688.5C-65.8 657.3 -131.6 626.1 -196.8 605.6C-261.9 585.1 -326.5 575.4 -398.1 547.9C-469.7 520.4 -548.4 475.1 -557 404.7C-565.6 334.3 -504.1 238.7 -514.3 167.1C-524.5 95.5 -606.5 47.7 -688.5 0L0 0Z" fill="#9ea2b6"></path><path d="M0 459C-43.9 438.2 -87.7 417.4 -131.2 403.7C-174.6 390.1 -217.6 383.6 -265.4 365.3C-313.1 346.9 -365.6 316.7 -371.3 269.8C-377.1 222.8 -336 159.2 -342.9 111.4C-349.7 63.6 -404.3 31.8 -459 0L0 0Z" fill="#656e8d"></path><path d="M0 229.5C-21.9 219.1 -43.9 208.7 -65.6 201.9C-87.3 195 -108.8 191.8 -132.7 182.6C-156.6 173.5 -182.8 158.4 -185.7 134.9C-188.5 111.4 -168 79.6 -171.4 55.7C-174.8 31.8 -202.2 15.9 -229.5 0L0 0Z" fill="#495579"></path></g><g transform="translate(0, 1080)"><path d="M0 -918C91.9 -892.9 183.7 -867.8 273.5 -841.7C363.2 -815.6 450.9 -788.6 539 -741.9C627.1 -695.1 715.6 -628.7 742.7 -539.6C769.7 -450.5 735.2 -338.8 754.2 -245.1C773.2 -151.3 845.6 -75.7 918 0L0 0Z" fill="#d9dae1"></path><path d="M0 -688.5C68.9 -669.7 137.8 -650.8 205.1 -631.3C272.4 -611.7 338.2 -591.5 404.2 -556.4C470.3 -521.4 536.7 -471.5 557 -404.7C577.3 -337.9 551.4 -254.1 565.6 -183.8C579.9 -113.5 634.2 -56.8 688.5 0L0 0Z" fill="#9ea2b6"></path><path d="M0 -459C45.9 -446.4 91.9 -433.9 136.7 -420.8C181.6 -407.8 225.4 -394.3 269.5 -370.9C313.6 -347.6 357.8 -314.3 371.3 -269.8C384.9 -225.2 367.6 -169.4 377.1 -122.5C386.6 -75.7 422.8 -37.8 459 0L0 0Z" fill="#656e8d"></path><path d="M0 -229.5C23 -223.2 45.9 -216.9 68.4 -210.4C90.8 -203.9 112.7 -197.2 134.7 -185.5C156.8 -173.8 178.9 -157.2 185.7 -134.9C192.4 -112.6 183.8 -84.7 188.5 -61.3C193.3 -37.8 211.4 -18.9 229.5 0L0 0Z" fill="#495579"></path></g></svg>